{
	"asset":{
		"generator":"Khronos glTF Blender I/O v3.6.27",
		"version":"2.0"
	},
	"extensionsUsed":[
		"KHR_materials_specular",
		"KHR_materials_ior"
	],
	"scene":0,
	"scenes":[
		{
			"name":"Scene",
			"nodes":[
				4
			]
		}
	],
	"nodes":[
		{
			"mesh":0,
			"name":"G:/My Drive/WORK/Alex_Acobe - cruciulita/pentru randare_d8f5da0",
			"rotation":[
				-0.04253547266125679,
				0.8653970956802368,
				-0.4679507613182068,
				0.17407108843326569
			],
			"translation":[
				-28.160146713256836,
				-0.12496281415224075,
				-33.458412170410156
			]
		},
		{
			"mesh":1,
			"name":"Group80",
			"translation":[
				-28.16014862060547,
				-0.12496298551559448,
				-33.458412170410156
			]
		},
		{
			"mesh":2,
			"name":"Group82",
			"rotation":[
				-0.18825176358222961,
				-0.04088984429836273,
				-0.9800700545310974,
				0.04849779233336449
			],
			"translation":[
				-28.160146713256836,
				-0.12496323138475418,
				-33.45841598510742
			]
		},
		{
			"children":[
				0,
				1,
				2
			],
			"name":"pentru randare - toate 3",
			"rotation":[
				-0.4255368709564209,
				0.8040366172790527,
				0.1873723864555359,
				0.3705875277519226
			],
			"translation":[
				12.743197441101074,
				8.919140815734863,
				-70.98719024658203
			]
		},
		{
			"children":[
				3
			],
			"name":"3 bratari 45*view",
			"rotation":[
				-0.8290709257125854,
				-0.42917144298553467,
				0.31442078948020935,
				0.17202553153038025
			],
			"scale":[
				0.0010000000474974513,
				0.0010000001639127731,
				0.0010000000474974513
			],
			"translation":[
				-0.024407580494880676,
				-0.0045725940726697445,
				-0.015476472675800323
			]
		}
	],
	"materials":[
		{
			"doubleSided":true,
			"extensions":{
				"KHR_materials_specular":{
					"specularColorFactor":[
						2.371357614441398,
						2.371357614441398,
						2.371357614441398
					]
				},
				"KHR_materials_ior":{
					"ior":1.4500000476837158
				}
			},
			"name":"gold- yellow- warmer #1 #1",
			"pbrMetallicRoughness":{
				"baseColorFactor":[
					0.9215999841690063,
					0.5285869836807251,
					0.1784220039844513,
					1
				],
				"roughnessFactor":0.5527864098548889
			}
		},
		{
			"doubleSided":true,
			"extensions":{
				"KHR_materials_specular":{
					"specularColorFactor":[
						2.371357614441398,
						2.371357614441398,
						2.371357614441398
					]
				},
				"KHR_materials_ior":{
					"ior":1.4500000476837158
				}
			},
			"name":"Nylon WEBBING- ALB #1",
			"pbrMetallicRoughness":{
				"roughnessFactor":0.5527864098548889
			}
		},
		{
			"doubleSided":true,
			"extensions":{
				"KHR_materials_specular":{
					"specularColorFactor":[
						2.371357614441398,
						2.371357614441398,
						2.371357614441398
					]
				},
				"KHR_materials_ior":{
					"ior":1.4500000476837158
				}
			},
			"name":"gold- yellow- warmer #1 #1.002",
			"pbrMetallicRoughness":{
				"baseColorFactor":[
					0.9215999841690063,
					0.5285869836807251,
					0.1784220039844513,
					1
				],
				"roughnessFactor":0.5527864098548889
			}
		}
	],
	"meshes":[
		{
			"name":"mesh.001",
			"primitives":[
				{
					"attributes":{
						"POSITION":0,
						"NORMAL":1,
						"TEXCOORD_0":2
					},
					"indices":3,
					"material":0
				}
			]
		},
		{
			"name":"mesh",
			"primitives":[
				{
					"attributes":{
						"POSITION":4,
						"NORMAL":5,
						"TEXCOORD_0":6
					},
					"indices":7,
					"material":1
				}
			]
		},
		{
			"name":"mesh.003",
			"primitives":[
				{
					"attributes":{
						"POSITION":8,
						"NORMAL":9,
						"TEXCOORD_0":10
					},
					"indices":11,
					"material":2
				}
			]
		}
	],
	"accessors":[
		{
			"bufferView":0,
			"componentType":5126,
			"count":8082,
			"max":[
				0.8998403549194336,
				-9.145450592041016,
				-2.405313491821289
			],
			"min":[
				-9.267964363098145,
				-15.866020202636719,
				-12.712634086608887
			],
			"type":"VEC3"
		},
		{
			"bufferView":1,
			"componentType":5126,
			"count":8082,
			"type":"VEC3"
		},
		{
			"bufferView":2,
			"componentType":5126,
			"count":8082,
			"type":"VEC2"
		},
		{
			"bufferView":3,
			"componentType":5123,
			"count":25968,
			"type":"SCALAR"
		},
		{
			"bufferView":4,
			"componentType":5126,
			"count":2583384,
			"max":[
				30.763484954833984,
				2.9376168251037598,
				17.92313575744629
			],
			"min":[
				-30.328359603881836,
				-2.5916569232940674,
				-23.19076919555664
			],
			"type":"VEC3"
		},
		{
			"bufferView":5,
			"componentType":5126,
			"count":2583384,
			"type":"VEC3"
		},
		{
			"bufferView":6,
			"componentType":5126,
			"count":2583384,
			"type":"VEC2"
		},
		{
			"bufferView":7,
			"componentType":5125,
			"count":13265970,
			"type":"SCALAR"
		},
		{
			"bufferView":8,
			"componentType":5126,
			"count":25884,
			"max":[
				10.497980117797852,
				6.098969459533691,
				18.4234676361084
			],
			"min":[
				1.9436092376708984,
				-2.8317975997924805,
				13.402915954589844
			],
			"type":"VEC3"
		},
		{
			"bufferView":9,
			"componentType":5126,
			"count":25884,
			"type":"VEC3"
		},
		{
			"bufferView":10,
			"componentType":5126,
			"count":25884,
			"type":"VEC2"
		},
		{
			"bufferView":11,
			"componentType":5123,
			"count":106272,
			"type":"SCALAR"
		}
	],
	"bufferViews":[
		{
			"buffer":0,
			"byteLength":96984,
			"byteOffset":0,
			"target":34962
		},
		{
			"buffer":0,
			"byteLength":96984,
			"byteOffset":96984,
			"target":34962
		},
		{
			"buffer":0,
			"byteLength":64656,
			"byteOffset":193968,
			"target":34962
		},
		{
			"buffer":0,
			"byteLength":51936,
			"byteOffset":258624,
			"target":34963
		},
		{
			"buffer":0,
			"byteLength":31000608,
			"byteOffset":310560,
			"target":34962
		},
		{
			"buffer":0,
			"byteLength":31000608,
			"byteOffset":31311168,
			"target":34962
		},
		{
			"buffer":0,
			"byteLength":20667072,
			"byteOffset":62311776,
			"target":34962
		},
		{
			"buffer":0,
			"byteLength":53063880,
			"byteOffset":82978848,
			"target":34963
		},
		{
			"buffer":0,
			"byteLength":310608,
			"byteOffset":136042728,
			"target":34962
		},
		{
			"buffer":0,
			"byteLength":310608,
			"byteOffset":136353336,
			"target":34962
		},
		{
			"buffer":0,
			"byteLength":207072,
			"byteOffset":136663944,
			"target":34962
		},
		{
			"buffer":0,
			"byteLength":212544,
			"byteOffset":136871016,
			"target":34963
		}
	],
	"buffers":[
		{
			"byteLength":137083560,
			"uri":"model.bin"
		}
	]
}
