{
	"asset":{
		"generator":"Khronos glTF Blender I/O v3.6.27",
		"version":"2.0"
	},
	"extensionsUsed":[
		"KHR_materials_specular",
		"KHR_materials_ior"
	],
	"scene":0,
	"scenes":[
		{
			"name":"Scene",
			"nodes":[
				4
			]
		}
	],
	"nodes":[
		{
			"mesh":0,
			"name":"G:/My Drive/WORK/Alex_Acobe - cruciulita/pentru randare_d8f5da0",
			"translation":[
				2.86102294921875e-06,
				0,
				4.291534423828125e-06
			]
		},
		{
			"mesh":1,
			"name":"Group80",
			"translation":[
				2.86102294921875e-06,
				0,
				4.291534423828125e-06
			]
		},
		{
			"mesh":2,
			"name":"Group82",
			"translation":[
				2.86102294921875e-06,
				0,
				4.291534423828125e-06
			]
		},
		{
			"children":[
				0,
				1,
				2
			],
			"name":"pentru randare - toate 3",
			"rotation":[
				-0.4255368709564209,
				0.8040366172790527,
				0.1873723715543747,
				0.3705874979496002
			],
			"translation":[
				12.743200302124023,
				8.919139862060547,
				-70.98719787597656
			]
		},
		{
			"children":[
				3
			],
			"name":"3 bratari 45*view",
			"rotation":[
				0.7071068286895752,
				0,
				0,
				0.7071068286895752
			],
			"scale":[
				0.0010000000474974513,
				0.0010000000474974513,
				0.0010000000474974513
			]
		}
	],
	"materials":[
		{
			"doubleSided":true,
			"extensions":{
				"KHR_materials_specular":{
					"specularColorFactor":[
						2.371357614441398,
						2.371357614441398,
						2.371357614441398
					]
				},
				"KHR_materials_ior":{
					"ior":1.4500000476837158
				}
			},
			"name":"gold- yellow- warmer #1 #1",
			"pbrMetallicRoughness":{
				"baseColorFactor":[
					0.9215999841690063,
					0.5285869836807251,
					0.1784220039844513,
					1
				],
				"roughnessFactor":0.5527864098548889
			}
		},
		{
			"doubleSided":true,
			"extensions":{
				"KHR_materials_specular":{
					"specularColorFactor":[
						2.371357614441398,
						2.371357614441398,
						2.371357614441398
					]
				},
				"KHR_materials_ior":{
					"ior":1.4500000476837158
				}
			},
			"name":"Nylon WEBBING- ALB #1",
			"pbrMetallicRoughness":{
				"roughnessFactor":0.5527864098548889
			}
		},
		{
			"doubleSided":true,
			"extensions":{
				"KHR_materials_specular":{
					"specularColorFactor":[
						2.371357614441398,
						2.371357614441398,
						2.371357614441398
					]
				},
				"KHR_materials_ior":{
					"ior":1.4500000476837158
				}
			},
			"name":"gold- yellow- warmer #1 #1.002",
			"pbrMetallicRoughness":{
				"baseColorFactor":[
					0.9215999841690063,
					0.5285869836807251,
					0.1784220039844513,
					1
				],
				"roughnessFactor":0.5527864098548889
			}
		}
	],
	"meshes":[
		{
			"name":"mesh.001",
			"primitives":[
				{
					"attributes":{
						"POSITION":0,
						"NORMAL":1,
						"TEXCOORD_0":2
					},
					"indices":3,
					"material":0
				}
			]
		},
		{
			"name":"mesh",
			"primitives":[
				{
					"attributes":{
						"POSITION":4,
						"NORMAL":5,
						"TEXCOORD_0":6
					},
					"indices":7,
					"material":1
				}
			]
		},
		{
			"name":"mesh.003",
			"primitives":[
				{
					"attributes":{
						"POSITION":8,
						"NORMAL":9,
						"TEXCOORD_0":10
					},
					"indices":11,
					"material":2
				}
			]
		}
	],
	"accessors":[
		{
			"bufferView":0,
			"componentType":5126,
			"count":8082,
			"max":[
				-23.441326141357422,
				4.41402006149292,
				-16.268386840820312
			],
			"min":[
				-32.441322326660156,
				-4.649383068084717,
				-20.422685623168945
			],
			"type":"VEC3"
		},
		{
			"bufferView":1,
			"componentType":5126,
			"count":8082,
			"type":"VEC3"
		},
		{
			"bufferView":2,
			"componentType":5126,
			"count":8082,
			"type":"VEC2"
		},
		{
			"bufferView":3,
			"componentType":5123,
			"count":25968,
			"type":"SCALAR"
		},
		{
			"bufferView":4,
			"componentType":5126,
			"count":31409,
			"max":[
				2.5899784564971924,
				2.818523406982422,
				-15.53099536895752
			],
			"min":[
				-58.47722625732422,
				-2.711977958679199,
				-56.62137985229492
			],
			"type":"VEC3"
		},
		{
			"bufferView":5,
			"componentType":5126,
			"count":31409,
			"type":"VEC3"
		},
		{
			"bufferView":6,
			"componentType":5126,
			"count":31409,
			"type":"VEC2"
		},
		{
			"bufferView":7,
			"componentType":5123,
			"count":132657,
			"type":"SCALAR"
		},
		{
			"bufferView":8,
			"componentType":5126,
			"count":25884,
			"max":[
				-23.44135284423828,
				4.3411946296691895,
				-15.868595123291016
			],
			"min":[
				-32.441349029541016,
				-4.662752151489258,
				-16.627044677734375
			],
			"type":"VEC3"
		},
		{
			"bufferView":9,
			"componentType":5126,
			"count":25884,
			"type":"VEC3"
		},
		{
			"bufferView":10,
			"componentType":5126,
			"count":25884,
			"type":"VEC2"
		},
		{
			"bufferView":11,
			"componentType":5123,
			"count":106272,
			"type":"SCALAR"
		}
	],
	"bufferViews":[
		{
			"buffer":0,
			"byteLength":96984,
			"byteOffset":0,
			"target":34962
		},
		{
			"buffer":0,
			"byteLength":96984,
			"byteOffset":96984,
			"target":34962
		},
		{
			"buffer":0,
			"byteLength":64656,
			"byteOffset":193968,
			"target":34962
		},
		{
			"buffer":0,
			"byteLength":51936,
			"byteOffset":258624,
			"target":34963
		},
		{
			"buffer":0,
			"byteLength":376908,
			"byteOffset":310560,
			"target":34962
		},
		{
			"buffer":0,
			"byteLength":376908,
			"byteOffset":687468,
			"target":34962
		},
		{
			"buffer":0,
			"byteLength":251272,
			"byteOffset":1064376,
			"target":34962
		},
		{
			"buffer":0,
			"byteLength":265314,
			"byteOffset":1315648,
			"target":34963
		},
		{
			"buffer":0,
			"byteLength":310608,
			"byteOffset":1580964,
			"target":34962
		},
		{
			"buffer":0,
			"byteLength":310608,
			"byteOffset":1891572,
			"target":34962
		},
		{
			"buffer":0,
			"byteLength":207072,
			"byteOffset":2202180,
			"target":34962
		},
		{
			"buffer":0,
			"byteLength":212544,
			"byteOffset":2409252,
			"target":34963
		}
	],
	"buffers":[
		{
			"byteLength":2621796,
			"uri":"model.bin"
		}
	]
}
